<?xml version="1.0" standalone="no"?>
<!DOCTYPE svg PUBLIC "-//W3C//DTD SVG 20010904//EN"
 "http://www.w3.org/TR/2001/REC-SVG-20010904/DTD/svg10.dtd">
<svg version="1.0" xmlns="http://www.w3.org/2000/svg"
 width="300.000000pt" height="303.000000pt" viewBox="0 0 300.000000 303.000000"
 preserveAspectRatio="xMidYMid meet">
<metadata>
Created by potrace 1.10, written by Peter Selinger 2001-2011
</metadata>
<g transform="translate(0.000000,303.000000) scale(0.100000,-0.100000)"
fill="#000000" stroke="none">
<path d="M1556 2848 c-4 -11 -24 -220 -22 -225 1 -1 36 -5 79 -10 71 -9 77 -8
77 9 0 15 -9 18 -61 18 l-62 0 8 83 c11 128 11 130 -2 134 -7 3 -15 -1 -17 -9z"/>
<path d="M1186 2747 c-17 -18 -26 -21 -26 -12 0 8 -7 15 -15 15 -19 0 -19 4 7
-96 14 -55 27 -84 36 -84 11 0 13 8 8 33 -20 96 -20 100 7 121 18 15 24 25 18
35 -7 11 -14 9 -35 -12z"/>
<path d="M1764 2750 c-50 -20 -69 -85 -38 -129 37 -52 107 -59 145 -15 65 76
-14 182 -107 144z m80 -33 c28 -21 18 -87 -16 -106 -25 -14 -29 -14 -55 5 -35
26 -41 66 -14 93 24 24 59 27 85 8z"/>
<path d="M1940 2631 c0 -50 -1 -94 -2 -98 -2 -5 6 -9 17 -11 12 -1 39 16 70
44 28 25 59 53 70 60 17 13 18 16 5 24 -11 7 -29 -4 -72 -48 -32 -31 -58 -52
-59 -47 0 6 -1 43 -2 84 -1 49 -6 76 -14 78 -10 4 -13 -18 -13 -86z"/>
<path d="M968 2670 c-26 -27 -30 -36 -25 -67 8 -48 42 -83 81 -83 37 0 96 34
96 55 0 20 -7 19 -37 -5 -30 -24 -75 -26 -93 -5 -10 12 -7 16 16 25 68 24 104
44 104 56 0 21 -50 54 -82 54 -20 0 -40 -10 -60 -30z m101 -14 c9 -11 2 -17
-36 -32 -27 -11 -51 -20 -55 -22 -11 -5 -10 26 2 49 13 23 71 26 89 5z"/>
<path d="M1376 2653 c-3 -4 -6 -15 -6 -25 0 -24 33 -21 38 3 3 17 -21 33 -32
22z"/>
<path d="M812 2593 c-18 -9 -35 -26 -38 -40 -4 -16 -10 -21 -16 -15 -6 6 -16
8 -24 5 -9 -3 8 -36 57 -110 52 -76 74 -102 82 -94 8 8 5 18 -9 38 -36 50 -39
57 -20 50 21 -8 72 17 86 42 24 46 -3 113 -53 131 -17 5 -30 10 -31 10 -1 0
-16 -8 -34 -17z m72 -34 c47 -37 25 -109 -34 -109 -57 0 -84 76 -40 112 29 23
41 23 74 -3z"/>
<path d="M2123 2590 c-25 -10 -53 -58 -53 -91 0 -30 62 -89 94 -89 16 0 26 6
26 15 0 9 -9 15 -25 15 -14 0 -34 9 -45 20 -18 18 -29 70 -14 70 3 0 31 -18
62 -40 63 -46 77 -42 77 20 0 64 -63 105 -122 80z m79 -37 c16 -14 26 -63 13
-63 -5 0 -83 47 -94 56 -1 1 0 7 4 13 10 17 56 13 77 -6z"/>
<path d="M2417 2466 c-3 -7 8 -26 24 -42 l29 -28 -57 -53 c-32 -29 -67 -52
-77 -53 -22 0 -45 27 -46 53 0 23 -30 22 -30 -2 0 -22 34 -67 62 -82 24 -13
68 15 140 88 l47 48 -40 43 c-45 47 -45 47 -52 28z"/>
<path d="M609 2431 c-20 -20 -29 -39 -29 -61 0 -22 9 -41 29 -61 37 -37 79
-38 120 -3 25 21 31 33 31 65 0 84 -91 120 -151 60z m84 -2 c54 -25 54 -102 1
-115 -69 -17 -113 62 -58 105 31 25 27 24 57 10z"/>
<path d="M445 2360 c-8 -13 -10 -12 104 -106 49 -40 86 -64 88 -57 3 7 5 14 6
16 2 4 -93 84 -155 130 -25 19 -38 24 -43 17z"/>
<path d="M2497 2292 c-21 -23 -21 -32 0 -99 16 -49 16 -55 1 -70 -16 -15 -19
-15 -43 1 -16 10 -30 33 -37 61 -13 49 -35 56 -30 9 5 -40 36 -88 67 -102 21
-10 32 -9 55 3 35 18 39 47 14 112 -19 49 -13 73 16 73 24 0 51 -29 65 -70 7
-20 14 -27 23 -21 17 10 0 56 -36 94 -30 32 -71 36 -95 9z"/>
<path d="M445 2218 c-32 -18 -44 -40 -44 -78 0 -54 38 -90 94 -90 38 0 85 50
85 90 0 36 -22 38 -25 2 -2 -33 -34 -62 -68 -62 -28 0 -29 1 -15 18 8 9 27 38
42 65 l27 47 -26 10 c-33 13 -45 12 -70 -2z m55 -30 c0 -7 -9 -24 -20 -38 -11
-14 -20 -31 -20 -37 0 -19 -27 -16 -34 3 -10 27 -7 43 14 64 22 22 60 27 60 8z"/>
<path d="M345 2070 c-5 -7 15 -34 51 -71 l58 -59 -34 2 c-80 5 -128 -2 -134
-18 -5 -14 5 -16 90 -12 130 6 133 14 45 102 -46 46 -71 64 -76 56z"/>
<path d="M2555 1984 c-24 -22 -27 -30 -22 -72 3 -32 12 -52 28 -65 27 -22 40
-6 17 21 -24 27 -28 50 -16 77 17 37 30 26 52 -41 11 -32 21 -61 23 -63 8 -11
53 25 63 50 14 33 1 84 -27 105 -30 23 -87 17 -118 -12z m113 -22 c16 -21 15
-54 -2 -78 -14 -19 -15 -19 -22 1 -4 11 -13 35 -20 54 -8 18 -14 38 -14 43 0
14 43 -1 58 -20z"/>
<path d="M287 1850 c-50 -39 -43 -116 12 -145 44 -22 69 -19 102 15 26 25 30
36 27 72 -2 23 -9 43 -16 46 -10 3 -12 -4 -7 -30 5 -26 1 -40 -15 -61 -20 -25
-50 -37 -50 -19 0 4 7 34 15 67 8 33 14 63 15 68 0 15 -58 6 -83 -13z m53 -21
c0 -22 -23 -99 -29 -99 -31 0 -41 63 -14 92 18 20 43 24 43 7z"/>
<path d="M2670 1800 c-14 -4 -42 -8 -62 -9 -28 -1 -38 -5 -38 -17 0 -14 9 -16
69 -10 64 7 70 5 85 -16 35 -50 16 -74 -73 -90 -38 -7 -61 -16 -61 -25 0 -16
-2 -16 77 -2 48 9 68 17 84 37 22 29 19 64 -8 95 -10 10 -12 17 -5 17 7 0 12
7 12 15 0 16 -37 19 -80 5z"/>
<path d="M233 1655 c-42 -18 -59 -54 -67 -142 l-6 -73 120 0 120 0 0 70 c0 85
-16 121 -64 144 -41 19 -61 20 -103 1z m114 -47 c19 -18 23 -32 23 -80 l0 -58
-52 0 c-29 0 -70 3 -92 7 l-38 6 5 50 c4 41 10 56 37 80 26 23 38 28 63 23 17
-4 41 -16 54 -28z"/>
<path d="M2688 1568 c-49 -23 -88 -47 -88 -55 0 -14 168 -98 178 -89 13 13
-12 33 -67 55 -34 13 -64 27 -66 31 -2 4 27 20 65 35 51 21 70 33 70 47 0 10
-1 18 -2 17 -2 0 -42 -19 -90 -41z"/>
<path d="M2590 1386 c0 -14 14 -18 128 -32 43 -5 52 -3 52 9 0 11 -14 18 -47
22 -135 17 -133 17 -133 1z"/>
<path d="M2804 1369 c-9 -15 11 -33 30 -26 9 4 13 13 10 22 -7 17 -30 20 -40
4z"/>
<path d="M371 1290 c-18 -28 -38 -50 -43 -50 -5 0 -25 11 -45 25 -20 13 -38
23 -40 21 -11 -10 15 -39 62 -67 30 -18 52 -36 50 -40 -3 -4 -33 -12 -68 -19
-73 -13 -89 -21 -79 -37 6 -9 39 -4 129 20 92 24 120 36 114 45 -5 8 -18 11
-32 8 -14 -3 -32 0 -43 9 -18 13 -17 16 13 56 29 40 41 79 24 79 -5 0 -23 -23
-42 -50z"/>
<path d="M2582 1304 c2 -13 17 -22 49 -29 56 -12 79 -30 79 -61 0 -15 6 -24
15 -24 18 0 19 23 4 52 -9 18 -9 20 4 15 8 -3 18 0 21 8 3 10 -14 18 -67 30
-40 9 -80 18 -90 21 -14 5 -18 1 -15 -12z"/>
<path d="M2567 1179 c-22 -13 -47 -61 -47 -92 0 -31 42 -77 72 -78 71 -4 108
28 108 91 0 65 -77 111 -133 79z m88 -44 c14 -13 25 -31 25 -40 0 -18 -43 -65
-60 -65 -16 0 -53 21 -62 34 -13 19 -9 59 9 78 23 25 59 23 88 -7z"/>
<path d="M426 1123 c-3 -4 5 -16 20 -28 45 -36 32 -96 -22 -109 -40 -10 -72
16 -76 61 -4 46 -22 50 -26 6 -6 -65 60 -117 118 -93 39 16 60 46 60 86 0 49
-49 101 -74 77z"/>
<path d="M2475 1009 c-9 -13 -7 -14 52 -53 53 -35 62 -56 39 -91 -21 -33 -42
-31 -100 5 -44 28 -66 31 -66 10 0 -14 106 -70 133 -70 30 0 67 42 67 76 0 15
6 24 16 24 38 0 7 26 -118 100 -11 7 -19 7 -23 -1z"/>
<path d="M477 929 c-72 -51 -76 -82 -20 -137 25 -26 38 -33 41 -23 2 7 -8 24
-22 38 -19 17 -26 33 -24 51 5 39 22 37 52 -8 19 -28 33 -40 50 -40 29 0 56
24 56 49 0 24 -38 71 -57 71 -12 0 -13 3 -4 13 10 13 6 27 -8 27 -3 0 -32 -18
-64 -41z m89 -34 c36 -54 -16 -76 -53 -23 -17 24 -19 34 -10 40 23 14 46 8 63
-17z"/>
<path d="M2365 830 c-3 -5 9 -25 28 -42 50 -48 58 -67 41 -100 -21 -41 -52
-36 -104 17 -29 30 -47 42 -54 35 -7 -7 4 -24 32 -53 48 -49 56 -89 21 -107
-31 -17 -62 -5 -102 39 -27 30 -38 37 -46 27 -8 -9 1 -23 32 -53 58 -56 80
-66 111 -52 25 12 59 66 50 81 -3 4 6 8 19 8 27 0 67 38 67 64 0 13 5 16 20
11 37 -12 22 19 -38 78 -60 59 -67 64 -77 47z"/>
<path d="M620 821 c0 -5 7 -14 15 -21 24 -20 18 -36 -27 -74 l-42 -36 -22 21
c-26 24 -45 8 -20 -17 19 -19 20 -26 4 -42 -17 -17 0 -28 22 -14 12 7 21 8 25
2 11 -18 26 -10 20 10 -5 16 4 30 39 61 50 45 56 69 26 99 -21 21 -40 26 -40
11z"/>
<path d="M680 688 c-27 -29 -26 -35 14 -97 35 -54 37 -75 8 -86 -24 -9 -63 23
-89 73 -1 2 -9 0 -17 -5 -14 -7 -12 -14 14 -44 16 -20 43 -42 60 -49 28 -11
34 -11 58 7 38 28 38 47 2 103 -37 57 -36 84 1 88 19 2 33 -5 53 -28 14 -17
26 -38 26 -46 0 -8 4 -14 9 -14 36 0 7 71 -42 100 -42 26 -71 25 -97 -2z"/>
<path d="M2048 559 c-21 -20 -27 -34 -21 -40 7 -7 20 0 41 20 31 32 56 38 82
21 13 -9 11 -13 -10 -30 -14 -10 -40 -27 -57 -37 -37 -20 -41 -33 -15 -55 29
-25 51 -29 87 -14 92 39 65 166 -35 166 -33 0 -48 -6 -72 -31z m139 -55 c2 -6
-6 -23 -17 -37 -23 -29 -61 -35 -79 -13 -9 11 -3 19 31 39 44 27 59 29 65 11z"/>
<path d="M897 455 c-52 -93 -62 -125 -38 -125 4 0 20 26 36 58 16 31 41 79 57
105 26 44 29 67 10 67 -4 0 -33 -47 -65 -105z"/>
<path d="M1009 473 c-76 -167 -80 -176 -67 -184 7 -4 13 -7 15 -6 10 11 99
227 95 231 -13 13 -23 3 -43 -41z"/>
<path d="M1953 503 c3 -10 14 -39 24 -65 17 -45 17 -47 0 -66 -44 -48 -88 -26
-109 53 -9 32 -17 45 -30 45 -10 0 -18 -3 -18 -6 0 -13 45 -111 58 -126 23
-27 78 -23 107 7 16 18 25 22 28 13 3 -9 8 -10 15 -3 16 14 -45 165 -65 165
-10 0 -13 -6 -10 -17z"/>
<path d="M1080 411 c-25 -85 -26 -96 -9 -96 7 0 18 23 26 50 19 63 29 75 64
75 25 0 59 -22 59 -38 0 -4 -9 -32 -20 -62 -15 -42 -17 -56 -7 -62 6 -4 14 -8
17 -8 5 0 20 53 37 127 4 15 -3 30 -23 48 -24 22 -36 26 -66 22 -23 -3 -36 -1
-35 5 1 6 -3 12 -8 14 -6 3 -22 -32 -35 -75z"/>
<path d="M1691 431 c-22 -14 -3 -33 21 -20 26 14 33 6 52 -59 13 -46 13 -54 1
-57 -8 -3 -22 -7 -31 -10 -25 -8 -5 -26 22 -19 20 5 26 2 31 -14 3 -13 10 -19
19 -15 9 3 12 13 9 24 -4 13 -1 19 9 19 9 0 16 7 16 16 0 10 -6 13 -18 10 -15
-5 -20 3 -30 52 -7 32 -17 63 -24 70 -14 14 -57 16 -77 3z"/>
<path d="M1410 374 l0 -47 -60 6 c-46 4 -60 2 -60 -8 0 -9 19 -16 56 -20 l55
-7 -3 -42 c-2 -22 -7 -40 -13 -40 -109 14 -125 14 -125 0 0 -10 19 -16 68 -21
37 -4 74 -7 82 -8 11 -2 16 15 22 73 4 41 9 94 11 118 4 36 2 42 -14 42 -16 0
-19 -8 -19 -46z"/>
<path d="M1547 414 c-16 -16 -6 -35 16 -32 12 2 22 10 22 18 0 16 -26 25 -38
14z"/>
</g>
</svg>
